<?xml version="1.0" encoding="UTF-8" standalone="no"?><!DOCTYPE svg PUBLIC "-//W3C//DTD SVG 1.1//EN" "http://www.w3.org/Graphics/SVG/1.1/DTD/svg11.dtd"><svg width="100%" height="100%" viewBox="0 0 2134 2134" version="1.1" xmlns="http://www.w3.org/2000/svg" xmlns:xlink="http://www.w3.org/1999/xlink" xml:space="preserve" xmlns:serif="http://www.serif.com/" style="fill-rule:evenodd;clip-rule:evenodd;stroke-linejoin:round;stroke-miterlimit:2;"><g><path d="M127.083,1066.67l0,-800.203c0,-76.926 62.455,-139.381 139.381,-139.381l800.203,0c518.57,0 939.583,421.014 939.583,939.584l0,800.202c0,76.927 -62.454,139.381 -139.381,139.381l-800.202,0c-518.57,0 -939.584,-421.013 -939.584,-939.583Z" style="fill:#4970ff;"/><path d="M1066.67,352.083c394.389,0 714.583,320.194 714.583,714.584c0,394.389 -320.194,714.583 -714.583,714.583c-394.39,-0 -714.584,-320.194 -714.584,-714.583c0,-394.39 320.194,-714.584 714.584,-714.584Zm-0,225c-270.209,0 -489.584,219.375 -489.584,489.584c0,270.208 219.375,489.583 489.584,489.583c270.208,0 489.583,-219.375 489.583,-489.583c0,-270.209 -219.375,-489.584 -489.583,-489.584Z" style="fill:#fff;"/><circle cx="1066.67" cy="1066.67" r="218.75" style="fill:#fff;"/></g></svg>